<mxfile host="app.diagrams.net" modified="2024-05-06T14:00:49.302Z" agent="Mozilla/5.0 (Macintosh; Intel Mac OS X 10_15_7) AppleWebKit/537.36 (KHTML, like Gecko) Chrome/124.0.0.0 Safari/537.36 Edg/124.0.0.0" etag="oaOC05FlfXgpth4pYdy8" version="24.2.7" type="github">
  <diagram id="prtHgNgQTEPvFCAcTncT" name="Page-1">
    <mxGraphModel dx="1387" dy="842" grid="1" gridSize="10" guides="1" tooltips="1" connect="1" arrows="1" fold="1" page="1" pageScale="1" pageWidth="827" pageHeight="1169" math="0" shadow="0">
      <root>
        <mxCell id="0" />
        <mxCell id="1" parent="0" />
        <mxCell id="4VWQQhbqRCGnYC1Ltig9-1" value="贷中发送验证码接口 v2/out-order/send-verify-code" style="swimlane;childLayout=stackLayout;resizeParent=1;resizeParentMax=0;startSize=20;html=1;labelBackgroundColor=none;fillColor=#B2C9AB;strokeColor=#788AA3;fontColor=#46495D;swimlaneFillColor=none;" vertex="1" parent="1">
          <mxGeometry x="100.00000000000045" y="210" width="1220" height="1000" as="geometry" />
        </mxCell>
        <mxCell id="4VWQQhbqRCGnYC1Ltig9-2" value="xyf-api-gateway" style="swimlane;startSize=20;html=1;labelBackgroundColor=none;fillColor=#B2C9AB;strokeColor=#788AA3;fontColor=#46495D;" vertex="1" parent="4VWQQhbqRCGnYC1Ltig9-1">
          <mxGeometry y="20" width="210" height="980" as="geometry" />
        </mxCell>
        <mxCell id="4VWQQhbqRCGnYC1Ltig9-5" value="请求发送借款验证码" style="rounded=0;whiteSpace=wrap;html=1;strokeColor=#788AA3;fontColor=#46495D;fillColor=#B2C9AB;" vertex="1" parent="4VWQQhbqRCGnYC1Ltig9-2">
          <mxGeometry x="35" y="60" width="100" height="50" as="geometry" />
        </mxCell>
        <mxCell id="4VWQQhbqRCGnYC1Ltig9-3" value="apiopfcore" style="swimlane;startSize=20;html=1;labelBackgroundColor=none;fillColor=#B2C9AB;strokeColor=#788AA3;fontColor=#46495D;" vertex="1" parent="4VWQQhbqRCGnYC1Ltig9-1">
          <mxGeometry x="210" y="20" width="500" height="980" as="geometry" />
        </mxCell>
        <mxCell id="4VWQQhbqRCGnYC1Ltig9-16" value="" style="edgeStyle=orthogonalEdgeStyle;rounded=1;orthogonalLoop=1;jettySize=auto;html=1;strokeColor=#788AA3;fontColor=#46495D;fillColor=#B2C9AB;curved=0;" edge="1" parent="4VWQQhbqRCGnYC1Ltig9-3" source="4VWQQhbqRCGnYC1Ltig9-6" target="4VWQQhbqRCGnYC1Ltig9-15">
          <mxGeometry relative="1" as="geometry" />
        </mxCell>
        <mxCell id="4VWQQhbqRCGnYC1Ltig9-6" value="接收请求" style="rounded=0;whiteSpace=wrap;html=1;strokeColor=#788AA3;fontColor=#46495D;fillColor=#B2C9AB;" vertex="1" parent="4VWQQhbqRCGnYC1Ltig9-3">
          <mxGeometry x="190" y="60" width="100" height="50" as="geometry" />
        </mxCell>
        <mxCell id="4VWQQhbqRCGnYC1Ltig9-26" value="" style="edgeStyle=orthogonalEdgeStyle;curved=0;rounded=1;orthogonalLoop=1;jettySize=auto;html=1;strokeColor=#788AA3;align=center;verticalAlign=middle;fontFamily=Helvetica;fontSize=11;fontColor=#46495D;labelBackgroundColor=default;endArrow=classic;fillColor=#B2C9AB;" edge="1" parent="4VWQQhbqRCGnYC1Ltig9-3" source="4VWQQhbqRCGnYC1Ltig9-15" target="4VWQQhbqRCGnYC1Ltig9-25">
          <mxGeometry relative="1" as="geometry" />
        </mxCell>
        <mxCell id="4VWQQhbqRCGnYC1Ltig9-15" value="查询用户的绑卡信息" style="rounded=0;whiteSpace=wrap;html=1;strokeColor=#788AA3;fontColor=#46495D;fillColor=#B2C9AB;" vertex="1" parent="4VWQQhbqRCGnYC1Ltig9-3">
          <mxGeometry x="190" y="170" width="100" height="50" as="geometry" />
        </mxCell>
        <mxCell id="4VWQQhbqRCGnYC1Ltig9-28" value="" style="edgeStyle=orthogonalEdgeStyle;curved=0;rounded=1;orthogonalLoop=1;jettySize=auto;html=1;strokeColor=#788AA3;align=center;verticalAlign=middle;fontFamily=Helvetica;fontSize=11;fontColor=#46495D;labelBackgroundColor=default;endArrow=classic;fillColor=#B2C9AB;" edge="1" parent="4VWQQhbqRCGnYC1Ltig9-3" source="4VWQQhbqRCGnYC1Ltig9-25" target="4VWQQhbqRCGnYC1Ltig9-27">
          <mxGeometry relative="1" as="geometry" />
        </mxCell>
        <mxCell id="4VWQQhbqRCGnYC1Ltig9-29" value="否" style="edgeLabel;html=1;align=center;verticalAlign=middle;resizable=0;points=[];strokeColor=#788AA3;fontFamily=Helvetica;fontSize=11;fontColor=#46495D;labelBackgroundColor=default;fillColor=#B2C9AB;" vertex="1" connectable="0" parent="4VWQQhbqRCGnYC1Ltig9-28">
          <mxGeometry x="-0.2667" y="-2" relative="1" as="geometry">
            <mxPoint as="offset" />
          </mxGeometry>
        </mxCell>
        <mxCell id="4VWQQhbqRCGnYC1Ltig9-31" value="是" style="edgeStyle=orthogonalEdgeStyle;curved=0;rounded=1;orthogonalLoop=1;jettySize=auto;html=1;strokeColor=#788AA3;align=center;verticalAlign=middle;fontFamily=Helvetica;fontSize=11;fontColor=#46495D;labelBackgroundColor=default;endArrow=classic;fillColor=#B2C9AB;" edge="1" parent="4VWQQhbqRCGnYC1Ltig9-3" source="4VWQQhbqRCGnYC1Ltig9-25" target="4VWQQhbqRCGnYC1Ltig9-30">
          <mxGeometry relative="1" as="geometry" />
        </mxCell>
        <mxCell id="4VWQQhbqRCGnYC1Ltig9-25" value="用户是否已经绑过卡" style="rhombus;whiteSpace=wrap;html=1;fillColor=#B2C9AB;strokeColor=#788AA3;fontColor=#46495D;rounded=0;" vertex="1" parent="4VWQQhbqRCGnYC1Ltig9-3">
          <mxGeometry x="70" y="300" width="180" height="80" as="geometry" />
        </mxCell>
        <mxCell id="4VWQQhbqRCGnYC1Ltig9-27" value="返回未绑卡" style="whiteSpace=wrap;html=1;fillColor=#B2C9AB;strokeColor=#788AA3;fontColor=#46495D;rounded=0;" vertex="1" parent="4VWQQhbqRCGnYC1Ltig9-3">
          <mxGeometry x="340" y="310" width="120" height="60" as="geometry" />
        </mxCell>
        <mxCell id="4VWQQhbqRCGnYC1Ltig9-30" value="用户日发送次数限制判断" style="whiteSpace=wrap;html=1;fillColor=#B2C9AB;strokeColor=#788AA3;fontColor=#46495D;rounded=0;" vertex="1" parent="4VWQQhbqRCGnYC1Ltig9-3">
          <mxGeometry x="100" y="470" width="120" height="60" as="geometry" />
        </mxCell>
        <mxCell id="4VWQQhbqRCGnYC1Ltig9-4" value="paycenter支付系统" style="swimlane;startSize=20;html=1;labelBackgroundColor=none;fillColor=#B2C9AB;strokeColor=#788AA3;fontColor=#46495D;" vertex="1" parent="4VWQQhbqRCGnYC1Ltig9-1">
          <mxGeometry x="710" y="20" width="170" height="980" as="geometry" />
        </mxCell>
        <mxCell id="4VWQQhbqRCGnYC1Ltig9-11" value="lendtrade借款引擎" style="swimlane;startSize=20;html=1;labelBackgroundColor=none;fillColor=#B2C9AB;strokeColor=#788AA3;fontColor=#46495D;" vertex="1" parent="4VWQQhbqRCGnYC1Ltig9-1">
          <mxGeometry x="880" y="20" width="170" height="980" as="geometry" />
        </mxCell>
        <mxCell id="4VWQQhbqRCGnYC1Ltig9-10" value="cis-bankcore" style="swimlane;startSize=20;html=1;labelBackgroundColor=none;fillColor=#B2C9AB;strokeColor=#788AA3;fontColor=#46495D;" vertex="1" parent="4VWQQhbqRCGnYC1Ltig9-1">
          <mxGeometry x="1050" y="20" width="170" height="980" as="geometry" />
        </mxCell>
        <mxCell id="4VWQQhbqRCGnYC1Ltig9-12" value="&lt;font style=&quot;font-size: 11px;&quot;&gt;根据客户号查询用户的绑卡信息&lt;/font&gt;" style="rounded=0;whiteSpace=wrap;html=1;strokeColor=#788AA3;fontColor=#46495D;fillColor=#B2C9AB;fontSize=8;" vertex="1" parent="4VWQQhbqRCGnYC1Ltig9-10">
          <mxGeometry x="40" y="170" width="100" height="50" as="geometry" />
        </mxCell>
        <mxCell id="4VWQQhbqRCGnYC1Ltig9-7" style="edgeStyle=orthogonalEdgeStyle;rounded=0;orthogonalLoop=1;jettySize=auto;html=1;entryX=0;entryY=0.5;entryDx=0;entryDy=0;strokeColor=#788AA3;fontColor=#46495D;fillColor=#B2C9AB;" edge="1" parent="4VWQQhbqRCGnYC1Ltig9-1" source="4VWQQhbqRCGnYC1Ltig9-5" target="4VWQQhbqRCGnYC1Ltig9-6">
          <mxGeometry relative="1" as="geometry" />
        </mxCell>
        <mxCell id="4VWQQhbqRCGnYC1Ltig9-8" value="&lt;span style=&quot;color: rgba(0, 0, 0, 0); font-family: monospace; font-size: 0px; text-align: start; background-color: rgb(251, 251, 251);&quot;&gt;%3CmxGraphModel%3E%3Croot%3E%3CmxCell%20id%3D%220%22%2F%3E%3CmxCell%20id%3D%221%22%20parent%3D%220%22%2F%3E%3CmxCell%20id%3D%222%22%20value%3D%22%E8%AF%B7%E6%B1%82%E5%8F%91%E9%80%81%E5%80%9F%E6%AC%BE%E9%AA%8C%E8%AF%81%E7%A0%81%22%20style%3D%22rounded%3D0%3BwhiteSpace%3Dwrap%3Bhtml%3D1%3BstrokeColor%3D%23788AA3%3BfontColor%3D%2346495D%3BfillColor%3D%23B2C9AB%3B%22%20vertex%3D%221%22%20parent%3D%221%22%3E%3CmxGeometry%20x%3D%22135.00000000000045%22%20y%3D%22290%22%20width%3D%22100%22%20height%3D%2250%22%20as%3D%22geometry%22%2F%3E%3C%2FmxCell%3E%3C%2Froot%3E%3C%2FmxGraphModel%3&lt;/span&gt;" style="edgeLabel;html=1;align=center;verticalAlign=middle;resizable=0;points=[];strokeColor=#788AA3;fontColor=#46495D;fillColor=#B2C9AB;" vertex="1" connectable="0" parent="4VWQQhbqRCGnYC1Ltig9-7">
          <mxGeometry x="-0.2407" relative="1" as="geometry">
            <mxPoint as="offset" />
          </mxGeometry>
        </mxCell>
        <mxCell id="4VWQQhbqRCGnYC1Ltig9-9" value="v2/out-order/send-verify-code" style="edgeLabel;html=1;align=center;verticalAlign=middle;resizable=0;points=[];strokeColor=#788AA3;fontColor=#46495D;fillColor=#B2C9AB;" vertex="1" connectable="0" parent="4VWQQhbqRCGnYC1Ltig9-7">
          <mxGeometry x="-0.1553" relative="1" as="geometry">
            <mxPoint x="17" as="offset" />
          </mxGeometry>
        </mxCell>
        <mxCell id="4VWQQhbqRCGnYC1Ltig9-17" style="edgeStyle=orthogonalEdgeStyle;curved=0;rounded=1;orthogonalLoop=1;jettySize=auto;html=1;strokeColor=#788AA3;align=center;verticalAlign=middle;fontFamily=Helvetica;fontSize=11;fontColor=#46495D;labelBackgroundColor=default;endArrow=classic;fillColor=#B2C9AB;" edge="1" parent="4VWQQhbqRCGnYC1Ltig9-1" source="4VWQQhbqRCGnYC1Ltig9-15">
          <mxGeometry relative="1" as="geometry">
            <mxPoint x="1089.9999999999995" y="215" as="targetPoint" />
          </mxGeometry>
        </mxCell>
        <mxCell id="4VWQQhbqRCGnYC1Ltig9-18" value="&lt;span style=&quot;color: rgb(23, 43, 77); font-family: -apple-system, &amp;quot;system-ui&amp;quot;, &amp;quot;Segoe UI&amp;quot;, Roboto, Oxygen, Ubuntu, &amp;quot;Fira Sans&amp;quot;, &amp;quot;Droid Sans&amp;quot;, &amp;quot;Helvetica Neue&amp;quot;, sans-serif; font-size: 12px; text-align: left; text-wrap: wrap;&quot;&gt;queryCustomerBankCard&lt;/span&gt;" style="edgeLabel;html=1;align=center;verticalAlign=middle;resizable=0;points=[];strokeColor=#788AA3;fontFamily=Helvetica;fontSize=12;fontColor=#46495D;labelBackgroundColor=default;fillColor=#B2C9AB;" vertex="1" connectable="0" parent="4VWQQhbqRCGnYC1Ltig9-17">
          <mxGeometry x="-0.0516" y="2" relative="1" as="geometry">
            <mxPoint x="78" y="2" as="offset" />
          </mxGeometry>
        </mxCell>
        <mxCell id="4VWQQhbqRCGnYC1Ltig9-21" value="替换账务的接口：&lt;div&gt;&lt;span style=&quot;color: rgb(255, 0, 255); font-family: Menlo-Regular, monospace;&quot;&gt;&lt;font style=&quot;font-size: 11px;&quot;&gt;psnlAcntHandler/getWithholdingBankCard&lt;/font&gt;&lt;/span&gt;&lt;/div&gt;" style="whiteSpace=wrap;html=1;rounded=1;arcSize=50;align=center;verticalAlign=middle;strokeWidth=1;autosize=1;spacing=4;treeFolding=1;treeMoving=1;newEdgeStyle={&quot;edgeStyle&quot;:&quot;entityRelationEdgeStyle&quot;,&quot;startArrow&quot;:&quot;none&quot;,&quot;endArrow&quot;:&quot;none&quot;,&quot;segment&quot;:10,&quot;curved&quot;:1,&quot;sourcePerimeterSpacing&quot;:0,&quot;targetPerimeterSpacing&quot;:0};strokeColor=#788AA3;fontFamily=Helvetica;fontSize=11;fontColor=#46495D;labelBackgroundColor=none;fillColor=#B2C9AB;" vertex="1" parent="1">
          <mxGeometry x="1360" y="340" width="300" height="40" as="geometry" />
        </mxCell>
        <mxCell id="4VWQQhbqRCGnYC1Ltig9-22" value="" style="edgeStyle=entityRelationEdgeStyle;startArrow=none;endArrow=none;segment=10;curved=1;sourcePerimeterSpacing=0;targetPerimeterSpacing=0;rounded=1;strokeColor=#788AA3;align=center;verticalAlign=middle;fontFamily=Helvetica;fontSize=11;fontColor=#46495D;labelBackgroundColor=default;fillColor=#B2C9AB;exitX=1;exitY=0.5;exitDx=0;exitDy=0;" edge="1" target="4VWQQhbqRCGnYC1Ltig9-21" parent="1" source="4VWQQhbqRCGnYC1Ltig9-12">
          <mxGeometry relative="1" as="geometry">
            <mxPoint x="1030" y="420" as="sourcePoint" />
          </mxGeometry>
        </mxCell>
      </root>
    </mxGraphModel>
  </diagram>
</mxfile>
